<?xml version="1.0" encoding="UTF-8" standalone="no"?><!-- Generator: Gravit.io --><svg xmlns="http://www.w3.org/2000/svg" xmlns:xlink="http://www.w3.org/1999/xlink" style="isolation:isolate" viewBox="0 0 170 201.4" width="170pt" height="201.4pt"><defs><clipPath id="_clipPath_by0DXMFKyAAzjNDph9SQvDPvHx43mLDM"><rect width="170" height="201.4"/></clipPath></defs><g clip-path="url(#_clipPath_by0DXMFKyAAzjNDph9SQvDPvHx43mLDM)"><g><g><path d=" M 121.9 26.516 C 121.9 26.516 111.9 1.316 110 2.116 C 108.2 2.816 104 6.616 103.9 7.816 C 103.8 8.916 104 17.416 104 17.416 C 104 17.416 106 38.416 107.7 39.416 C 109.2 40.316 100.4 74.816 106.6 84.316 C 113 93.716 116.3 98.716 121.6 100.116 C 127 101.516 153.1 91.216 154.9 90.116 C 156.6 88.816 161 76.016 161 72.516 C 161 69.116 160.9 69.416 160.4 67.216 C 159.9 64.816 159 57.416 159 57.416 C 159 57.416 159.5 43.516 161 42.216 C 162.5 40.916 166.2 26.316 167.5 21.216 C 168.7 16.116 168.7 15.416 168.1 13.916 C 167.5 12.216 165.5 9.316 165 9.216 C 164.5 9.016 160.2 13.916 157.8 17.116 C 155.3 20.316 151.1 25.016 149.7 26.516 C 148.3 27.916 144.9 30.216 143.9 30.516 C 143.1 31.016 138.1 31.716 137 31.616 C 135.9 31.116 121.9 26.516 121.9 26.516 L 121.9 26.516 Z " fill-rule="evenodd" fill="rgb(255,203,5)"/><path d=" M 166.6 201.216 C 166.1 197.916 166.6 194.616 166.6 191.516 C 166.6 188.416 167.8 192.916 166.6 180.816 C 165.5 168.516 165.2 164.616 164.1 162.416 C 163 160.316 162.7 158.516 160.6 152.016 C 158.4 145.516 158.2 141.316 157.9 133.816 C 157.5 126.516 157.5 122.816 157.5 122.816 C 157.5 122.816 157.1 119.416 157.1 115.916 C 157.1 112.416 157.1 109.516 157.1 107.616 C 157.1 105.816 157.1 104.116 157.1 102.316 C 157.1 100.416 156.4 101.616 157.6 98.316 C 158.9 95.116 160.2 92.716 160.3 90.716 C 160.5 88.716 161.8 86.316 160.5 84.916 C 160 84.416 159.9 83.616 159.9 82.516 C 160.7 81.316 161.1 79.716 161.9 77.816 C 162.7 76.016 163.6 74.116 163 72.116 C 162.9 71.516 162.6 71.016 162.4 70.616 C 162.2 70.016 162 69.416 162 68.816 C 161.8 66.616 161.5 64.316 161.3 62.116 C 161.2 61.316 161.1 60.316 160.9 59.516 C 162 59.116 163 58.616 163.7 57.316 C 165.1 54.816 165.7 53.316 165.9 51.416 C 166.3 49.416 166.3 47.916 166.3 46.916 C 166.3 46.116 166.7 44.716 165.9 42.416 C 165.1 40.016 165.7 39.816 164.2 39.216 L 164.2 39.216 L 164.7 37.016 C 164.8 36.216 165.1 35.316 165.3 34.516 C 165.7 33.716 166.2 33.016 166.6 32.016 C 167.1 30.916 167.4 29.816 167.4 28.616 C 167.4 28.116 167.9 26.816 168 26.416 C 168.6 24.716 169.1 23.116 169.2 21.316 C 169.6 18.616 169.4 15.516 169 12.716 C 168.9 12.316 168.8 12.016 168.6 11.616 L 168.6 11.616 L 168.6 11.516 L 168.6 11.516 C 168.5 11.316 168.5 11.116 168.4 10.916 C 168 10.116 167.6 8.916 167.6 8.916 C 167.6 8.916 165.1 6.516 164.4 6.516 C 163.8 6.516 162.2 5.316 161.2 6.516 C 160.3 7.716 158.4 10.016 157.3 12.116 C 156.4 14.116 154.5 17.116 153.8 17.916 C 153.1 18.816 152.7 19.616 152 20.316 C 151.4 21.016 150.8 21.416 150.1 22.016 C 149.4 22.616 148.7 22.916 148.2 23.316 C 147.7 23.516 148.7 23.916 146.9 23.916 C 145.1 23.916 143.9 23.916 143 23.516 C 142.1 23.116 139.1 21.416 137.6 21.116 C 136.1 21.016 131.6 20.516 131.6 20.516 C 131.6 20.516 130.8 20.616 129.8 20.616 C 129 20.616 126.6 21.216 125.5 21.016 C 124.3 20.916 123.5 19.816 123.5 19.816 C 123.5 19.816 122.3 16.416 121.4 15.016 C 120.6 13.716 117.4 8.716 116.8 7.016 C 116.3 5.316 115.4 2.916 114.9 2.416 C 114.3 1.916 112.9 0.516 112.3 0.416 C 111.8 0.316 112.8 -0.084 110.6 0.016 C 108.4 0.116 107.5 -0.084 107.2 0.616 C 107.1 0.816 107 1.216 106.7 1.416 C 106.2 1.616 105.9 1.916 105.5 2.216 C 103.5 4.316 101.6 6.716 102.1 9.816 C 102.2 10.916 102.1 11.516 102.1 12.416 C 101.7 14.416 101.3 16.416 102.3 18.416 C 102.7 19.116 102.7 19.816 102.9 20.516 C 103.1 21.716 103.8 22.916 103.6 24.016 C 103.4 25.116 102.8 25.916 102.7 27.116 C 102.6 27.816 102.7 28.516 102.8 29.216 C 102.8 29.216 103.2 33.816 103.6 35.116 C 104 36.416 103.7 36.516 103.6 37.616 C 103.6 38.716 103.6 39.016 103.6 39.416 C 103.6 39.916 100.9 42.916 100.9 46.416 C 100.9 49.716 100.8 50.816 100.5 52.116 C 100.3 53.516 99.8 52.516 99.9 55.216 C 100.1 57.816 100.1 57.616 100.3 59.016 C 100.5 60.416 100.7 62.116 100.3 63.116 C 100.1 64.216 99.5 63.516 99.8 66.116 C 100.2 68.716 100.3 69.816 100.4 70.216 C 100.5 70.816 101.1 79.316 102.2 87.916 C 102.8 92.516 101.5 94.016 101.4 96.316 C 101.3 98.316 102.2 100.816 102.2 105.416 C 102.2 109.116 102.3 113.516 103.5 118.416 C 105.3 125.516 100.8 132.116 100.8 133.916 C 100.8 136.716 99.6 128.816 90.6 128.816 C 81.6 128.816 72.6 128.116 69 128.116 C 65.5 128.116 58.6 127.416 54.4 127.416 C 50 127.416 37.7 133.216 33.8 135.016 C 29.8 136.816 18.8 141.316 11 151.716 C 1.8 164.116 0 178.016 0 183.916 C 0 187.316 1.7 193.816 3.8 201.416 L 166.6 201.416 L 166.6 201.216 Z  M 120.9 83.816 C 120.2 83.116 119.6 82.416 119 82.416 C 118.8 82.316 118.4 82.316 118.2 82.316 L 118.1 82.316 C 117.6 81.816 116.9 81.516 116.1 81.016 C 115.9 80.416 115.6 79.816 115 79.516 C 114.3 78.916 114.5 78.916 113.7 78.416 C 112.8 78.016 111.3 77.716 111.3 77.716 L 110.8 76.316 C 110.8 76.316 108.9 74.416 108.7 71.316 L 108.7 70.616 C 108.7 67.116 109.9 63.016 109.6 61.616 C 109.5 60.216 109.4 57.316 108.7 57.516 C 108.1 57.616 107.9 56.416 107.9 54.916 C 107.9 53.416 107.3 49.616 109.3 47.916 C 110.7 46.716 111.7 46.116 112.4 45.816 C 112.8 45.716 113.1 45.616 113.3 45.416 L 113.3 45.416 C 114.4 45.216 115.4 44.916 116.3 46.216 C 117.2 47.416 117.8 47.416 120.2 48.916 C 122.6 50.416 124.9 51.916 126.8 52.316 C 128.6 52.816 128.3 52.316 129.6 54.116 C 130.9 55.816 129.6 56.816 131.4 57.916 C 131.4 57.916 129.3 59.416 127.9 59.616 C 126.5 59.616 125.5 55.516 124.6 56.916 C 123.4 58.916 121.1 58.016 121.3 56.116 C 121.3 55.716 119.5 57.216 119.3 57.316 C 117.8 57.816 117.2 58.416 116.5 58.716 C 115.8 59.116 113.2 59.216 113.2 59.216 C 113.2 59.216 114.7 58.516 115.8 58.116 C 116.6 57.716 116.9 57.216 118 56.416 C 120.7 55.016 119.9 55.116 120.5 54.616 C 121.1 54.016 121.8 53.116 123 52.916 C 123.7 52.816 125.1 52.816 125.5 53.716 C 125.9 54.916 125.5 55.016 126.6 55.616 C 127.8 56.216 127.1 56.516 128.1 57.016 C 129 57.516 129.4 57.716 130.3 57.816 C 131.1 58.016 131.5 57.816 131.5 57.816 C 133.2 59.016 134.6 59.516 136.1 58.016 C 137.6 56.616 138.2 55.916 139.2 55.416 C 140.1 54.816 139.2 53.416 142.9 52.716 C 145.5 52.216 146.2 51.516 147.2 51.316 C 147.8 51.216 148.3 51.216 148.9 51.216 C 149.5 51.216 149.8 51.216 150.2 51.216 C 151 51.216 151.9 51.316 152.7 51.616 C 153.3 52.016 153.8 52.216 154 52.316 C 154.9 52.916 155.4 53.416 155.9 54.016 L 155.9 54.016 C 156.3 54.916 156.6 55.816 156.8 56.516 C 156.9 56.916 157.2 57.316 157.3 57.816 C 157.4 58.016 157.4 58.216 157.5 58.316 L 157.6 58.816 C 157.6 59.016 158.3 64.916 158.1 64.916 C 157.7 64.916 157.7 66.116 157.5 66.716 C 157.4 67.216 156.4 67.416 155.5 67.816 C 154.6 68.216 154.7 67.916 154.1 67.616 C 153.5 67.216 153.2 66.916 152 65.516 C 150.7 64.216 151.4 65.416 149.3 65.116 C 147.3 64.716 146.9 64.016 146.3 63.916 C 146.1 65.616 148 66.616 148.9 66.916 C 149.8 67.316 150.2 66.916 151 67.116 C 151.8 67.316 152.2 68.616 152.8 69.616 C 153.4 70.516 153.6 70.016 154.3 70.116 C 155 70.216 155.5 70.216 156.2 70.016 C 156.8 69.916 158 69.216 158.2 67.916 C 158.3 67.416 158.4 67.216 158.7 67.116 C 158.7 67.916 158.8 68.616 158.9 69.516 C 159 71.016 159.3 71.716 159.5 72.316 C 159.5 72.416 160 74.216 159.5 74.716 C 159.1 75.316 159.4 75.316 157.5 76.616 C 155.6 77.916 156.9 77.216 156 77.316 C 155.1 77.516 155.3 77.316 152.9 76.616 C 150.5 75.816 151.6 77.216 149.8 77.316 C 147.9 77.516 148.4 77.316 146 75.916 C 143.8 74.616 141.2 72.216 141.2 71.516 C 141.3 70.816 141.2 70.816 140.7 70.416 C 140.1 69.916 137.7 69.916 137.2 70.016 C 138.9 70.616 139.2 70.916 139.8 72.116 C 140.4 73.416 140.5 72.816 140.7 73.016 C 141.1 73.216 142 75.116 142.2 75.616 C 142.4 76.116 143.9 76.516 144.4 76.916 C 144.9 77.316 146.3 78.716 147 79.116 C 147.8 79.716 148.2 79.516 149.5 79.516 C 150.8 79.516 151 79.316 152.1 78.816 C 153.3 78.316 155.2 79.516 157.1 79.316 C 157.5 79.316 157.8 79.216 158 79.116 C 157.2 81.316 157.2 81.616 155 82.116 C 152.4 82.716 151.1 83.916 148 83.016 C 145 82.116 142.6 78.916 141.5 77.716 C 140.4 76.616 134.2 75.116 134.2 75.116 C 134.2 75.116 134.7 83.716 129 84.216 C 125.4 84.416 122.9 84.316 120.9 83.816 L 120.9 83.816 Z  M 155.4 28.916 C 156.7 27.516 159.8 26.316 159.8 25.216 C 159.7 24.316 160.2 21.916 160.6 21.116 L 160.6 21.116 C 161.3 19.916 161.7 19.116 161.9 18.516 L 161.9 18.516 L 161.9 18.516 C 162 18.116 162.1 17.816 162.3 17.616 L 162.3 17.616 L 162.3 17.616 L 162.3 17.616 L 162.3 17.516 L 162.3 17.416 L 162.3 17.416 L 162.3 17.416 C 162.3 17.416 164 14.416 164.4 14.216 C 164.9 14.116 165 11.716 165.8 13.516 C 166 14.916 166.4 17.816 166 21.116 C 165.6 24.416 164.2 27.016 164.2 28.816 C 164.2 30.616 162.5 32.716 162.2 33.516 C 162 34.316 161.5 36.516 161.5 36.516 C 161.5 36.516 160.6 35.916 159.8 35.416 C 159.1 34.816 157.9 34.016 157.3 33.016 C 157.1 32.216 156 30.216 155.4 28.916 L 155.4 28.916 Z  M 161.9 18.516 L 161.9 18.516 L 162.3 17.616 M 109 4.616 C 109.8 6.116 110.1 7.216 110.5 8.616 C 110.9 10.016 111 11.216 111.4 12.616 C 111.8 14.016 112.5 15.816 112.7 17.416 C 113.1 19.116 112.2 17.616 113.4 19.616 C 114.6 21.616 113.8 19.816 114.6 22.116 C 115.5 24.316 115.9 23.816 115.7 25.816 C 115.1 26.216 114.4 26.516 113.9 26.616 C 113.2 26.816 113.3 27.516 112.8 28.016 C 112.2 28.516 111.1 29.316 111 30.616 C 111 31.916 109.8 33.716 108.9 34.016 C 107.8 34.416 108.1 31.316 106.9 29.316 C 105.7 27.416 106.5 27.216 107.1 24.816 C 107.7 22.416 106.7 21.116 106.4 19.616 C 106 18.216 106 17.716 105.5 16.616 C 105 15.516 105.6 13.116 105.7 12.616 C 105.7 12.116 105.9 10.916 105.7 9.216 C 105.3 7.316 107.5 5.316 108.2 4.516 C 108.5 4.316 108.8 4.316 109 4.616 L 109 4.616 Z " fill-rule="evenodd" fill="rgb(41,61,57)"/></g><path d=" M 127.912 190.688 L 127.912 190.688 L 127.912 186.62 L 127.912 186.62 Q 127.912 185.432 126.976 184.892 L 126.976 184.892 L 126.976 184.892 Q 126.04 184.352 123.736 183.812 L 123.736 183.812 L 120.532 183.092 L 120.532 183.092 Q 118.336 182.588 117.22 181.976 L 117.22 181.976 L 117.22 181.976 Q 114.844 180.716 114.844 176.756 L 114.844 176.756 L 114.844 173.984 L 114.844 173.984 Q 114.844 170.996 116.986 169.646 L 116.986 169.646 L 116.986 169.646 Q 119.128 168.296 122.656 168.296 L 122.656 168.296 L 122.656 168.296 Q 126.184 168.296 128.308 169.646 L 128.308 169.646 L 128.308 169.646 Q 130.432 170.996 130.432 173.984 L 130.432 173.984 L 130.432 175.568 L 130.432 175.568 Q 130.432 176.396 128.992 176.396 L 128.992 176.396 L 128.992 176.396 Q 127.552 176.396 127.552 175.568 L 127.552 175.568 L 127.552 173.624 L 127.552 173.624 Q 127.552 170.816 122.638 170.816 L 122.638 170.816 L 122.638 170.816 Q 117.724 170.816 117.724 173.624 L 117.724 173.624 L 117.724 176.684 L 117.724 176.684 Q 117.724 178.664 118.318 179.402 L 118.318 179.402 L 118.318 179.402 Q 118.912 180.14 120.532 180.5 L 120.532 180.5 L 123.736 181.22 L 123.736 181.22 Q 127.192 181.976 127.678 182.246 L 127.678 182.246 L 127.678 182.246 Q 128.164 182.516 128.812 182.84 L 128.812 182.84 L 128.812 182.84 Q 129.46 183.164 129.694 183.506 L 129.694 183.506 L 129.694 183.506 Q 129.928 183.848 130.252 184.352 L 130.252 184.352 L 130.252 184.352 Q 130.792 185.18 130.792 186.908 L 130.792 186.908 L 130.792 190.328 L 130.792 190.328 Q 130.792 193.28 128.434 194.648 L 128.434 194.648 L 128.434 194.648 Q 126.076 196.016 122.494 196.016 L 122.494 196.016 L 122.494 196.016 Q 118.912 196.016 116.626 194.648 L 116.626 194.648 L 116.626 194.648 Q 114.34 193.28 114.34 190.328 L 114.34 190.328 L 114.34 188.744 L 114.34 188.744 Q 114.34 187.916 115.78 187.916 L 115.78 187.916 L 115.78 187.916 Q 117.22 187.916 117.22 188.744 L 117.22 188.744 L 117.22 190.688 L 117.22 190.688 Q 117.22 192.164 118.714 192.83 L 118.714 192.83 L 118.714 192.83 Q 120.208 193.496 122.494 193.496 L 122.494 193.496 L 122.494 193.496 Q 124.78 193.496 126.346 192.812 L 126.346 192.812 L 126.346 192.812 Q 127.912 192.128 127.912 190.688 Z  M 154.3 169.484 L 154.3 169.484 L 154.3 194.828 L 154.3 194.828 Q 154.3 195.656 152.86 195.656 L 152.86 195.656 L 152.86 195.656 Q 151.42 195.656 151.42 194.828 L 151.42 194.828 L 151.42 183.632 L 140.512 183.632 L 140.512 194.828 L 140.512 194.828 Q 140.512 195.656 139.072 195.656 L 139.072 195.656 L 139.072 195.656 Q 137.632 195.656 137.632 194.828 L 137.632 194.828 L 137.632 169.484 L 137.632 169.484 Q 137.632 168.656 139.072 168.656 L 139.072 168.656 L 139.072 168.656 Q 140.512 168.656 140.512 169.484 L 140.512 169.484 L 140.512 181.112 L 151.42 181.112 L 151.42 169.484 L 151.42 169.484 Q 151.42 168.656 152.86 168.656 L 152.86 168.656 L 152.86 168.656 Q 154.3 168.656 154.3 169.484 Z  M 17.392 192.956 L 17.392 192.956 L 23.224 192.956 L 23.224 192.956 Q 23.944 192.956 23.944 194.216 L 23.944 194.216 L 23.944 194.216 Q 23.944 195.476 23.224 195.476 L 23.224 195.476 L 17.392 195.476 L 17.392 195.476 Q 14.296 195.476 13 193.982 L 13 193.982 L 13 193.982 Q 11.704 192.488 11.704 189.14 L 11.704 189.14 L 11.704 169.484 L 11.704 169.484 Q 11.704 168.656 13.144 168.656 L 13.144 168.656 L 13.144 168.656 Q 14.584 168.656 14.584 169.484 L 14.584 169.484 L 14.584 189.14 L 14.584 189.14 Q 14.584 191.228 15.214 192.092 L 15.214 192.092 L 15.214 192.092 Q 15.844 192.956 17.392 192.956 Z  M 44.932 173.984 L 44.932 173.984 L 44.932 194.828 L 44.932 194.828 Q 44.932 195.656 43.492 195.656 L 43.492 195.656 L 43.492 195.656 Q 42.052 195.656 42.052 194.828 L 42.052 194.828 L 42.052 185.072 L 31.144 185.072 L 31.144 194.828 L 31.144 194.828 Q 31.144 195.656 29.704 195.656 L 29.704 195.656 L 29.704 195.656 Q 28.264 195.656 28.264 194.828 L 28.264 194.828 L 28.264 173.984 L 28.264 173.984 Q 28.264 171.968 29.452 170.654 L 29.452 170.654 L 29.452 170.654 Q 30.64 169.34 32.476 168.818 L 32.476 168.818 L 32.476 168.818 Q 34.312 168.296 36.796 168.296 L 36.796 168.296 L 36.796 168.296 Q 44.932 168.296 44.932 173.984 Z  M 31.144 173.624 L 31.144 173.624 L 31.144 182.552 L 42.052 182.552 L 42.052 173.624 L 42.052 173.624 Q 42.052 170.816 36.598 170.816 L 36.598 170.816 L 36.598 170.816 Q 31.144 170.816 31.144 173.624 Z  M 72.796 194.828 L 72.796 194.828 L 72.796 171.356 L 72.436 171.356 L 72.436 171.356 Q 71.284 171.356 70.996 171.68 L 70.996 171.68 L 70.996 171.68 Q 70.708 172.004 70.384 173.3 L 70.384 173.3 L 65.668 191.984 L 65.668 191.984 Q 65.488 192.812 64.264 192.812 L 64.264 192.812 L 64.264 192.812 Q 63.04 192.812 62.86 191.984 L 62.86 191.984 L 58.144 173.3 L 58.144 173.3 Q 57.82 172.004 57.532 171.68 L 57.532 171.68 L 57.532 171.68 Q 57.244 171.356 56.092 171.356 L 56.092 171.356 L 55.732 171.356 L 55.732 194.828 L 55.732 194.828 Q 55.732 195.656 54.292 195.656 L 54.292 195.656 L 54.292 195.656 Q 52.852 195.656 52.852 194.828 L 52.852 194.828 L 52.852 171.536 L 52.852 171.536 Q 52.852 169.952 53.23 169.394 L 53.23 169.394 L 53.23 169.394 Q 53.608 168.836 55.012 168.836 L 55.012 168.836 L 55.804 168.836 L 55.804 168.836 Q 58.324 168.836 59.206 169.412 L 59.206 169.412 L 59.206 169.412 Q 60.088 169.988 60.628 172.292 L 60.628 172.292 L 64.264 187.232 L 67.9 172.292 L 67.9 172.292 Q 68.44 169.988 69.322 169.412 L 69.322 169.412 L 69.322 169.412 Q 70.204 168.836 72.724 168.836 L 72.724 168.836 L 73.516 168.836 L 73.516 168.836 Q 74.92 168.836 75.298 169.394 L 75.298 169.394 L 75.298 169.394 Q 75.676 169.952 75.676 171.536 L 75.676 171.536 L 75.676 194.828 L 75.676 194.828 Q 75.676 195.656 74.236 195.656 L 74.236 195.656 L 74.236 195.656 Q 72.796 195.656 72.796 194.828 Z  M 100.264 173.984 L 100.264 173.984 L 100.264 194.828 L 100.264 194.828 Q 100.264 195.656 98.824 195.656 L 98.824 195.656 L 98.824 195.656 Q 97.384 195.656 97.384 194.828 L 97.384 194.828 L 97.384 185.072 L 86.476 185.072 L 86.476 194.828 L 86.476 194.828 Q 86.476 195.656 85.036 195.656 L 85.036 195.656 L 85.036 195.656 Q 83.596 195.656 83.596 194.828 L 83.596 194.828 L 83.596 173.984 L 83.596 173.984 Q 83.596 171.968 84.784 170.654 L 84.784 170.654 L 84.784 170.654 Q 85.972 169.34 87.808 168.818 L 87.808 168.818 L 87.808 168.818 Q 89.644 168.296 92.128 168.296 L 92.128 168.296 L 92.128 168.296 Q 100.264 168.296 100.264 173.984 Z  M 86.476 173.624 L 86.476 173.624 L 86.476 182.552 L 97.384 182.552 L 97.384 173.624 L 97.384 173.624 Q 97.384 170.816 91.93 170.816 L 91.93 170.816 L 91.93 170.816 Q 86.476 170.816 86.476 173.624 Z  M 109.372 192.092 L 109.372 192.092 L 109.372 195.152 L 109.372 195.152 Q 109.372 196.016 107.842 196.016 L 107.842 196.016 L 107.842 196.016 Q 106.312 196.016 106.312 195.152 L 106.312 195.152 L 106.312 192.092 L 106.312 192.092 Q 106.312 191.228 107.842 191.228 L 107.842 191.228 L 107.842 191.228 Q 109.372 191.228 109.372 192.092 Z " fill="rgb(255,203,5)"/></g></g></svg>