<?xml version="1.0" encoding="UTF-8" standalone="no"?><!-- Generator: Gravit.io --><svg xmlns="http://www.w3.org/2000/svg" xmlns:xlink="http://www.w3.org/1999/xlink" style="isolation:isolate" viewBox="0 0 170 243" width="170pt" height="243pt"><defs><clipPath id="_clipPath_Ljg1OdDObXNbNWtzyuY9HU75u2LETCMH"><rect width="170" height="243"/></clipPath></defs><g clip-path="url(#_clipPath_Ljg1OdDObXNbNWtzyuY9HU75u2LETCMH)"><g/><g><path d=" M 121.9 26.516 C 121.9 26.516 111.9 1.316 110 2.116 C 108.2 2.816 104 6.616 103.9 7.816 C 103.8 8.916 104 17.416 104 17.416 C 104 17.416 106 38.416 107.7 39.416 C 109.2 40.316 100.4 74.816 106.6 84.316 C 113 93.716 116.3 98.716 121.6 100.116 C 127 101.516 153.1 91.216 154.9 90.116 C 156.6 88.816 161 76.016 161 72.516 C 161 69.116 160.9 69.416 160.4 67.216 C 159.9 64.816 159 57.416 159 57.416 C 159 57.416 159.5 43.516 161 42.216 C 162.5 40.916 166.2 26.316 167.5 21.216 C 168.7 16.116 168.7 15.416 168.1 13.916 C 167.5 12.216 165.5 9.316 165 9.216 C 164.5 9.016 160.2 13.916 157.8 17.116 C 155.3 20.316 151.1 25.016 149.7 26.516 C 148.3 27.916 144.9 30.216 143.9 30.516 C 143.1 31.016 138.1 31.716 137 31.616 C 135.9 31.116 121.9 26.516 121.9 26.516 L 121.9 26.516 Z " fill-rule="evenodd" fill="rgb(255,203,5)"/><path d=" M 166.6 201.216 C 166.1 197.916 166.6 194.616 166.6 191.516 C 166.6 188.416 167.8 192.916 166.6 180.816 C 165.5 168.516 165.2 164.616 164.1 162.416 C 163 160.316 162.7 158.516 160.6 152.016 C 158.4 145.516 158.2 141.316 157.9 133.816 C 157.5 126.516 157.5 122.816 157.5 122.816 C 157.5 122.816 157.1 119.416 157.1 115.916 C 157.1 112.416 157.1 109.516 157.1 107.616 C 157.1 105.816 157.1 104.116 157.1 102.316 C 157.1 100.416 156.4 101.616 157.6 98.316 C 158.9 95.116 160.2 92.716 160.3 90.716 C 160.5 88.716 161.8 86.316 160.5 84.916 C 160 84.416 159.9 83.616 159.9 82.516 C 160.7 81.316 161.1 79.716 161.9 77.816 C 162.7 76.016 163.6 74.116 163 72.116 C 162.9 71.516 162.6 71.016 162.4 70.616 C 162.2 70.016 162 69.416 162 68.816 C 161.8 66.616 161.5 64.316 161.3 62.116 C 161.2 61.316 161.1 60.316 160.9 59.516 C 162 59.116 163 58.616 163.7 57.316 C 165.1 54.816 165.7 53.316 165.9 51.416 C 166.3 49.416 166.3 47.916 166.3 46.916 C 166.3 46.116 166.7 44.716 165.9 42.416 C 165.1 40.016 165.7 39.816 164.2 39.216 L 164.2 39.216 L 164.7 37.016 C 164.8 36.216 165.1 35.316 165.3 34.516 C 165.7 33.716 166.2 33.016 166.6 32.016 C 167.1 30.916 167.4 29.816 167.4 28.616 C 167.4 28.116 167.9 26.816 168 26.416 C 168.6 24.716 169.1 23.116 169.2 21.316 C 169.6 18.616 169.4 15.516 169 12.716 C 168.9 12.316 168.8 12.016 168.6 11.616 L 168.6 11.616 L 168.6 11.516 L 168.6 11.516 C 168.5 11.316 168.5 11.116 168.4 10.916 C 168 10.116 167.6 8.916 167.6 8.916 C 167.6 8.916 165.1 6.516 164.4 6.516 C 163.8 6.516 162.2 5.316 161.2 6.516 C 160.3 7.716 158.4 10.016 157.3 12.116 C 156.4 14.116 154.5 17.116 153.8 17.916 C 153.1 18.816 152.7 19.616 152 20.316 C 151.4 21.016 150.8 21.416 150.1 22.016 C 149.4 22.616 148.7 22.916 148.2 23.316 C 147.7 23.516 148.7 23.916 146.9 23.916 C 145.1 23.916 143.9 23.916 143 23.516 C 142.1 23.116 139.1 21.416 137.6 21.116 C 136.1 21.016 131.6 20.516 131.6 20.516 C 131.6 20.516 130.8 20.616 129.8 20.616 C 129 20.616 126.6 21.216 125.5 21.016 C 124.3 20.916 123.5 19.816 123.5 19.816 C 123.5 19.816 122.3 16.416 121.4 15.016 C 120.6 13.716 117.4 8.716 116.8 7.016 C 116.3 5.316 115.4 2.916 114.9 2.416 C 114.3 1.916 112.9 0.516 112.3 0.416 C 111.8 0.316 112.8 -0.084 110.6 0.016 C 108.4 0.116 107.5 -0.084 107.2 0.616 C 107.1 0.816 107 1.216 106.7 1.416 C 106.2 1.616 105.9 1.916 105.5 2.216 C 103.5 4.316 101.6 6.716 102.1 9.816 C 102.2 10.916 102.1 11.516 102.1 12.416 C 101.7 14.416 101.3 16.416 102.3 18.416 C 102.7 19.116 102.7 19.816 102.9 20.516 C 103.1 21.716 103.8 22.916 103.6 24.016 C 103.4 25.116 102.8 25.916 102.7 27.116 C 102.6 27.816 102.7 28.516 102.8 29.216 C 102.8 29.216 103.2 33.816 103.6 35.116 C 104 36.416 103.7 36.516 103.6 37.616 C 103.6 38.716 103.6 39.016 103.6 39.416 C 103.6 39.916 100.9 42.916 100.9 46.416 C 100.9 49.716 100.8 50.816 100.5 52.116 C 100.3 53.516 99.8 52.516 99.9 55.216 C 100.1 57.816 100.1 57.616 100.3 59.016 C 100.5 60.416 100.7 62.116 100.3 63.116 C 100.1 64.216 99.5 63.516 99.8 66.116 C 100.2 68.716 100.3 69.816 100.4 70.216 C 100.5 70.816 101.1 79.316 102.2 87.916 C 102.8 92.516 101.5 94.016 101.4 96.316 C 101.3 98.316 102.2 100.816 102.2 105.416 C 102.2 109.116 102.3 113.516 103.5 118.416 C 105.3 125.516 100.8 132.116 100.8 133.916 C 100.8 136.716 99.6 128.816 90.6 128.816 C 81.6 128.816 72.6 128.116 69 128.116 C 65.5 128.116 58.6 127.416 54.4 127.416 C 50 127.416 37.7 133.216 33.8 135.016 C 29.8 136.816 18.8 141.316 11 151.716 C 1.8 164.116 0 178.016 0 183.916 C 0 187.316 1.7 193.816 3.8 201.416 L 166.6 201.416 L 166.6 201.216 Z  M 120.9 83.816 C 120.2 83.116 119.6 82.416 119 82.416 C 118.8 82.316 118.4 82.316 118.2 82.316 L 118.1 82.316 C 117.6 81.816 116.9 81.516 116.1 81.016 C 115.9 80.416 115.6 79.816 115 79.516 C 114.3 78.916 114.5 78.916 113.7 78.416 C 112.8 78.016 111.3 77.716 111.3 77.716 L 110.8 76.316 C 110.8 76.316 108.9 74.416 108.7 71.316 L 108.7 70.616 C 108.7 67.116 109.9 63.016 109.6 61.616 C 109.5 60.216 109.4 57.316 108.7 57.516 C 108.1 57.616 107.9 56.416 107.9 54.916 C 107.9 53.416 107.3 49.616 109.3 47.916 C 110.7 46.716 111.7 46.116 112.4 45.816 C 112.8 45.716 113.1 45.616 113.3 45.416 L 113.3 45.416 C 114.4 45.216 115.4 44.916 116.3 46.216 C 117.2 47.416 117.8 47.416 120.2 48.916 C 122.6 50.416 124.9 51.916 126.8 52.316 C 128.6 52.816 128.3 52.316 129.6 54.116 C 130.9 55.816 129.6 56.816 131.4 57.916 C 131.4 57.916 129.3 59.416 127.9 59.616 C 126.5 59.616 125.5 55.516 124.6 56.916 C 123.4 58.916 121.1 58.016 121.3 56.116 C 121.3 55.716 119.5 57.216 119.3 57.316 C 117.8 57.816 117.2 58.416 116.5 58.716 C 115.8 59.116 113.2 59.216 113.2 59.216 C 113.2 59.216 114.7 58.516 115.8 58.116 C 116.6 57.716 116.9 57.216 118 56.416 C 120.7 55.016 119.9 55.116 120.5 54.616 C 121.1 54.016 121.8 53.116 123 52.916 C 123.7 52.816 125.1 52.816 125.5 53.716 C 125.9 54.916 125.5 55.016 126.6 55.616 C 127.8 56.216 127.1 56.516 128.1 57.016 C 129 57.516 129.4 57.716 130.3 57.816 C 131.1 58.016 131.5 57.816 131.5 57.816 C 133.2 59.016 134.6 59.516 136.1 58.016 C 137.6 56.616 138.2 55.916 139.2 55.416 C 140.1 54.816 139.2 53.416 142.9 52.716 C 145.5 52.216 146.2 51.516 147.2 51.316 C 147.8 51.216 148.3 51.216 148.9 51.216 C 149.5 51.216 149.8 51.216 150.2 51.216 C 151 51.216 151.9 51.316 152.7 51.616 C 153.3 52.016 153.8 52.216 154 52.316 C 154.9 52.916 155.4 53.416 155.9 54.016 L 155.9 54.016 C 156.3 54.916 156.6 55.816 156.8 56.516 C 156.9 56.916 157.2 57.316 157.3 57.816 C 157.4 58.016 157.4 58.216 157.5 58.316 L 157.6 58.816 C 157.6 59.016 158.3 64.916 158.1 64.916 C 157.7 64.916 157.7 66.116 157.5 66.716 C 157.4 67.216 156.4 67.416 155.5 67.816 C 154.6 68.216 154.7 67.916 154.1 67.616 C 153.5 67.216 153.2 66.916 152 65.516 C 150.7 64.216 151.4 65.416 149.3 65.116 C 147.3 64.716 146.9 64.016 146.3 63.916 C 146.1 65.616 148 66.616 148.9 66.916 C 149.8 67.316 150.2 66.916 151 67.116 C 151.8 67.316 152.2 68.616 152.8 69.616 C 153.4 70.516 153.6 70.016 154.3 70.116 C 155 70.216 155.5 70.216 156.2 70.016 C 156.8 69.916 158 69.216 158.2 67.916 C 158.3 67.416 158.4 67.216 158.7 67.116 C 158.7 67.916 158.8 68.616 158.9 69.516 C 159 71.016 159.3 71.716 159.5 72.316 C 159.5 72.416 160 74.216 159.5 74.716 C 159.1 75.316 159.4 75.316 157.5 76.616 C 155.6 77.916 156.9 77.216 156 77.316 C 155.1 77.516 155.3 77.316 152.9 76.616 C 150.5 75.816 151.6 77.216 149.8 77.316 C 147.9 77.516 148.4 77.316 146 75.916 C 143.8 74.616 141.2 72.216 141.2 71.516 C 141.3 70.816 141.2 70.816 140.7 70.416 C 140.1 69.916 137.7 69.916 137.2 70.016 C 138.9 70.616 139.2 70.916 139.8 72.116 C 140.4 73.416 140.5 72.816 140.7 73.016 C 141.1 73.216 142 75.116 142.2 75.616 C 142.4 76.116 143.9 76.516 144.4 76.916 C 144.9 77.316 146.3 78.716 147 79.116 C 147.8 79.716 148.2 79.516 149.5 79.516 C 150.8 79.516 151 79.316 152.1 78.816 C 153.3 78.316 155.2 79.516 157.1 79.316 C 157.5 79.316 157.8 79.216 158 79.116 C 157.2 81.316 157.2 81.616 155 82.116 C 152.4 82.716 151.1 83.916 148 83.016 C 145 82.116 142.6 78.916 141.5 77.716 C 140.4 76.616 134.2 75.116 134.2 75.116 C 134.2 75.116 134.7 83.716 129 84.216 C 125.4 84.416 122.9 84.316 120.9 83.816 L 120.9 83.816 Z  M 155.4 28.916 C 156.7 27.516 159.8 26.316 159.8 25.216 C 159.7 24.316 160.2 21.916 160.6 21.116 L 160.6 21.116 C 161.3 19.916 161.7 19.116 161.9 18.516 L 161.9 18.516 L 161.9 18.516 C 162 18.116 162.1 17.816 162.3 17.616 L 162.3 17.616 L 162.3 17.616 L 162.3 17.616 L 162.3 17.516 L 162.3 17.416 L 162.3 17.416 L 162.3 17.416 C 162.3 17.416 164 14.416 164.4 14.216 C 164.9 14.116 165 11.716 165.8 13.516 C 166 14.916 166.4 17.816 166 21.116 C 165.6 24.416 164.2 27.016 164.2 28.816 C 164.2 30.616 162.5 32.716 162.2 33.516 C 162 34.316 161.5 36.516 161.5 36.516 C 161.5 36.516 160.6 35.916 159.8 35.416 C 159.1 34.816 157.9 34.016 157.3 33.016 C 157.1 32.216 156 30.216 155.4 28.916 L 155.4 28.916 Z  M 161.9 18.516 L 161.9 18.516 L 162.3 17.616 M 109 4.616 C 109.8 6.116 110.1 7.216 110.5 8.616 C 110.9 10.016 111 11.216 111.4 12.616 C 111.8 14.016 112.5 15.816 112.7 17.416 C 113.1 19.116 112.2 17.616 113.4 19.616 C 114.6 21.616 113.8 19.816 114.6 22.116 C 115.5 24.316 115.9 23.816 115.7 25.816 C 115.1 26.216 114.4 26.516 113.9 26.616 C 113.2 26.816 113.3 27.516 112.8 28.016 C 112.2 28.516 111.1 29.316 111 30.616 C 111 31.916 109.8 33.716 108.9 34.016 C 107.8 34.416 108.1 31.316 106.9 29.316 C 105.7 27.416 106.5 27.216 107.1 24.816 C 107.7 22.416 106.7 21.116 106.4 19.616 C 106 18.216 106 17.716 105.5 16.616 C 105 15.516 105.6 13.116 105.7 12.616 C 105.7 12.116 105.9 10.916 105.7 9.216 C 105.3 7.316 107.5 5.316 108.2 4.516 C 108.5 4.316 108.8 4.316 109 4.616 L 109 4.616 Z " fill-rule="evenodd" fill="rgb(41,61,57)"/><path d=" M 2.2 183.716 L 164.7 183.716 C 165.8 183.716 166.6 184.616 166.6 185.716 L 166.6 240.916 C 166.6 242.016 165.8 242.816 164.7 242.816 L 2.2 242.816 C 1.1 242.816 0.3 242.016 0.3 240.916 L 0.3 185.716 C 0.3 184.716 1.2 183.716 2.2 183.716 L 2.2 183.716 Z " fill-rule="evenodd" fill="rgb(41,61,57)"/><path d=" M 127.843 226.286 L 127.843 226.286 L 127.843 222.218 L 127.843 222.218 Q 127.843 221.03 126.907 220.49 L 126.907 220.49 L 126.907 220.49 Q 125.971 219.95 123.667 219.41 L 123.667 219.41 L 120.463 218.69 L 120.463 218.69 Q 118.267 218.186 117.151 217.574 L 117.151 217.574 L 117.151 217.574 Q 114.775 216.314 114.775 212.354 L 114.775 212.354 L 114.775 209.582 L 114.775 209.582 Q 114.775 206.594 116.917 205.244 L 116.917 205.244 L 116.917 205.244 Q 119.059 203.894 122.587 203.894 L 122.587 203.894 L 122.587 203.894 Q 126.115 203.894 128.239 205.244 L 128.239 205.244 L 128.239 205.244 Q 130.363 206.594 130.363 209.582 L 130.363 209.582 L 130.363 211.166 L 130.363 211.166 Q 130.363 211.994 128.923 211.994 L 128.923 211.994 L 128.923 211.994 Q 127.483 211.994 127.483 211.166 L 127.483 211.166 L 127.483 209.222 L 127.483 209.222 Q 127.483 206.414 122.569 206.414 L 122.569 206.414 L 122.569 206.414 Q 117.655 206.414 117.655 209.222 L 117.655 209.222 L 117.655 212.282 L 117.655 212.282 Q 117.655 214.262 118.249 215 L 118.249 215 L 118.249 215 Q 118.843 215.738 120.463 216.098 L 120.463 216.098 L 123.667 216.818 L 123.667 216.818 Q 127.123 217.574 127.609 217.844 L 127.609 217.844 L 127.609 217.844 Q 128.095 218.114 128.743 218.438 L 128.743 218.438 L 128.743 218.438 Q 129.391 218.762 129.625 219.104 L 129.625 219.104 L 129.625 219.104 Q 129.859 219.446 130.183 219.95 L 130.183 219.95 L 130.183 219.95 Q 130.723 220.778 130.723 222.506 L 130.723 222.506 L 130.723 225.926 L 130.723 225.926 Q 130.723 228.878 128.365 230.246 L 128.365 230.246 L 128.365 230.246 Q 126.007 231.614 122.425 231.614 L 122.425 231.614 L 122.425 231.614 Q 118.843 231.614 116.557 230.246 L 116.557 230.246 L 116.557 230.246 Q 114.271 228.878 114.271 225.926 L 114.271 225.926 L 114.271 224.342 L 114.271 224.342 Q 114.271 223.514 115.711 223.514 L 115.711 223.514 L 115.711 223.514 Q 117.151 223.514 117.151 224.342 L 117.151 224.342 L 117.151 226.286 L 117.151 226.286 Q 117.151 227.762 118.645 228.428 L 118.645 228.428 L 118.645 228.428 Q 120.139 229.094 122.425 229.094 L 122.425 229.094 L 122.425 229.094 Q 124.711 229.094 126.277 228.41 L 126.277 228.41 L 126.277 228.41 Q 127.843 227.726 127.843 226.286 Z  M 154.231 205.082 L 154.231 205.082 L 154.231 230.426 L 154.231 230.426 Q 154.231 231.254 152.791 231.254 L 152.791 231.254 L 152.791 231.254 Q 151.351 231.254 151.351 230.426 L 151.351 230.426 L 151.351 219.23 L 140.443 219.23 L 140.443 230.426 L 140.443 230.426 Q 140.443 231.254 139.003 231.254 L 139.003 231.254 L 139.003 231.254 Q 137.563 231.254 137.563 230.426 L 137.563 230.426 L 137.563 205.082 L 137.563 205.082 Q 137.563 204.254 139.003 204.254 L 139.003 204.254 L 139.003 204.254 Q 140.443 204.254 140.443 205.082 L 140.443 205.082 L 140.443 216.71 L 151.351 216.71 L 151.351 205.082 L 151.351 205.082 Q 151.351 204.254 152.791 204.254 L 152.791 204.254 L 152.791 204.254 Q 154.231 204.254 154.231 205.082 Z  M 17.323 228.554 L 17.323 228.554 L 23.155 228.554 L 23.155 228.554 Q 23.875 228.554 23.875 229.814 L 23.875 229.814 L 23.875 229.814 Q 23.875 231.074 23.155 231.074 L 23.155 231.074 L 17.323 231.074 L 17.323 231.074 Q 14.227 231.074 12.931 229.58 L 12.931 229.58 L 12.931 229.58 Q 11.635 228.086 11.635 224.738 L 11.635 224.738 L 11.635 205.082 L 11.635 205.082 Q 11.635 204.254 13.075 204.254 L 13.075 204.254 L 13.075 204.254 Q 14.515 204.254 14.515 205.082 L 14.515 205.082 L 14.515 224.738 L 14.515 224.738 Q 14.515 226.826 15.145 227.69 L 15.145 227.69 L 15.145 227.69 Q 15.775 228.554 17.323 228.554 Z  M 44.863 209.582 L 44.863 209.582 L 44.863 230.426 L 44.863 230.426 Q 44.863 231.254 43.423 231.254 L 43.423 231.254 L 43.423 231.254 Q 41.983 231.254 41.983 230.426 L 41.983 230.426 L 41.983 220.67 L 31.075 220.67 L 31.075 230.426 L 31.075 230.426 Q 31.075 231.254 29.635 231.254 L 29.635 231.254 L 29.635 231.254 Q 28.195 231.254 28.195 230.426 L 28.195 230.426 L 28.195 209.582 L 28.195 209.582 Q 28.195 207.566 29.383 206.252 L 29.383 206.252 L 29.383 206.252 Q 30.571 204.938 32.407 204.416 L 32.407 204.416 L 32.407 204.416 Q 34.243 203.894 36.727 203.894 L 36.727 203.894 L 36.727 203.894 Q 44.863 203.894 44.863 209.582 Z  M 31.075 209.222 L 31.075 209.222 L 31.075 218.15 L 41.983 218.15 L 41.983 209.222 L 41.983 209.222 Q 41.983 206.414 36.529 206.414 L 36.529 206.414 L 36.529 206.414 Q 31.075 206.414 31.075 209.222 Z  M 72.727 230.426 L 72.727 230.426 L 72.727 206.954 L 72.367 206.954 L 72.367 206.954 Q 71.215 206.954 70.927 207.278 L 70.927 207.278 L 70.927 207.278 Q 70.639 207.602 70.315 208.898 L 70.315 208.898 L 65.599 227.582 L 65.599 227.582 Q 65.419 228.41 64.195 228.41 L 64.195 228.41 L 64.195 228.41 Q 62.971 228.41 62.791 227.582 L 62.791 227.582 L 58.075 208.898 L 58.075 208.898 Q 57.751 207.602 57.463 207.278 L 57.463 207.278 L 57.463 207.278 Q 57.175 206.954 56.023 206.954 L 56.023 206.954 L 55.663 206.954 L 55.663 230.426 L 55.663 230.426 Q 55.663 231.254 54.223 231.254 L 54.223 231.254 L 54.223 231.254 Q 52.783 231.254 52.783 230.426 L 52.783 230.426 L 52.783 207.134 L 52.783 207.134 Q 52.783 205.55 53.161 204.992 L 53.161 204.992 L 53.161 204.992 Q 53.539 204.434 54.943 204.434 L 54.943 204.434 L 55.735 204.434 L 55.735 204.434 Q 58.255 204.434 59.137 205.01 L 59.137 205.01 L 59.137 205.01 Q 60.019 205.586 60.559 207.89 L 60.559 207.89 L 64.195 222.83 L 67.831 207.89 L 67.831 207.89 Q 68.371 205.586 69.253 205.01 L 69.253 205.01 L 69.253 205.01 Q 70.135 204.434 72.655 204.434 L 72.655 204.434 L 73.447 204.434 L 73.447 204.434 Q 74.851 204.434 75.229 204.992 L 75.229 204.992 L 75.229 204.992 Q 75.607 205.55 75.607 207.134 L 75.607 207.134 L 75.607 230.426 L 75.607 230.426 Q 75.607 231.254 74.167 231.254 L 74.167 231.254 L 74.167 231.254 Q 72.727 231.254 72.727 230.426 Z  M 100.195 209.582 L 100.195 209.582 L 100.195 230.426 L 100.195 230.426 Q 100.195 231.254 98.755 231.254 L 98.755 231.254 L 98.755 231.254 Q 97.315 231.254 97.315 230.426 L 97.315 230.426 L 97.315 220.67 L 86.407 220.67 L 86.407 230.426 L 86.407 230.426 Q 86.407 231.254 84.967 231.254 L 84.967 231.254 L 84.967 231.254 Q 83.527 231.254 83.527 230.426 L 83.527 230.426 L 83.527 209.582 L 83.527 209.582 Q 83.527 207.566 84.715 206.252 L 84.715 206.252 L 84.715 206.252 Q 85.903 204.938 87.739 204.416 L 87.739 204.416 L 87.739 204.416 Q 89.575 203.894 92.059 203.894 L 92.059 203.894 L 92.059 203.894 Q 100.195 203.894 100.195 209.582 Z  M 86.407 209.222 L 86.407 209.222 L 86.407 218.15 L 97.315 218.15 L 97.315 209.222 L 97.315 209.222 Q 97.315 206.414 91.861 206.414 L 91.861 206.414 L 91.861 206.414 Q 86.407 206.414 86.407 209.222 Z  M 109.303 227.69 L 109.303 227.69 L 109.303 230.75 L 109.303 230.75 Q 109.303 231.614 107.773 231.614 L 107.773 231.614 L 107.773 231.614 Q 106.243 231.614 106.243 230.75 L 106.243 230.75 L 106.243 227.69 L 106.243 227.69 Q 106.243 226.826 107.773 226.826 L 107.773 226.826 L 107.773 226.826 Q 109.303 226.826 109.303 227.69 Z " fill="rgb(255,203,5)"/></g></g></svg>